HIERARCHY
ROOT Hips
{
	OFFSET 0.000000 71.427986 0.000000
	CHANNELS 6 Xposition Yposition Zposition Xrotation Yrotation Zrotation
	JOINT Pelvis
	{
		OFFSET 0.000000 0.000000 0.000000
		CHANNELS 3 Xrotation Yrotation Zrotation
		JOINT LeftUpLeg
		{
			OFFSET 6.797100 -2.508499 -1.318700
			CHANNELS 3 Xrotation Yrotation Zrotation
			JOINT LeftLeg
			{
				OFFSET 0.069008 -29.241863 0.690200
				CHANNELS 3 Xrotation Yrotation Zrotation
				JOINT LeftFoot
				{
					OFFSET -0.069008 -29.568123 -0.266800
					CHANNELS 3 Xrotation Yrotation Zrotation
					JOINT LeftToeBase
					{
						OFFSET 3.145500 -8.631000 16.059900
						CHANNELS 3 Xrotation Yrotation Zrotation
						End Site
						{
							OFFSET 0.000000 18.501587 0.000000
						}
					}
				}
			}
			JOINT Left_ShortSleeve
			{
				OFFSET 0.265923 -10.480953 1.153800
				CHANNELS 3 Xrotation Yrotation Zrotation
				End Site
				{
					OFFSET 1.725763 19.823879 0.000000
				}
			}
		}
		JOINT RightUpLeg
		{
			OFFSET -6.797100 -2.508499 -1.318700
			CHANNELS 3 Xrotation Yrotation Zrotation
			JOINT RightLeg
			{
				OFFSET -0.082453 -29.241932 0.688000
				CHANNELS 3 Xrotation Yrotation Zrotation
				JOINT RightFoot
				{
					OFFSET 0.082453 -29.568058 -0.264600
					CHANNELS 3 Xrotation Yrotation Zrotation
					JOINT RightToeBase
					{
						OFFSET -3.115300 -8.682800 16.113400
						CHANNELS 3 Xrotation Yrotation Zrotation
						End Site
						{
							OFFSET 0.000000 18.567114 0.000000
						}
					}
				}
			}
			JOINT Right_ShortSleeve
			{
				OFFSET -0.265923 -10.480953 1.153800
				CHANNELS 3 Xrotation Yrotation Zrotation
				End Site
				{
					OFFSET -1.725766 19.823910 0.000000
				}
			}
		}
	}
	JOINT Spine
	{
		OFFSET 0.000000 13.368103 0.470500
		CHANNELS 3 Xrotation Yrotation Zrotation
		JOINT Spine1
		{
			OFFSET 0.147000 13.837402 0.538800
			CHANNELS 3 Xrotation Yrotation Zrotation
			JOINT Spine2
			{
				OFFSET 0.168000 16.242897 -1.435500
				CHANNELS 3 Xrotation Yrotation Zrotation
				JOINT Neck
				{
					OFFSET 0.217200 18.631500 -1.679100
					CHANNELS 3 Xrotation Yrotation Zrotation
					JOINT Head
					{
						OFFSET 0.000000 6.599396 1.385900
						CHANNELS 3 Xrotation Yrotation Zrotation
						JOINT Hat
						{
							OFFSET -0.532200 27.220596 -10.096100
							CHANNELS 3 Xrotation Yrotation Zrotation
							End Site
							{
								OFFSET 0.000000 22.029861 0.000000
							}
						}
						JOINT HairD
						{
							OFFSET -10.777400 17.437393 -1.325900
							CHANNELS 3 Xrotation Yrotation Zrotation
							JOINT HairD1
							{
								OFFSET -3.290299 -11.051193 1.062200
								CHANNELS 3 Xrotation Yrotation Zrotation
								End Site
								{
									OFFSET 0.000000 11.579437 0.000000
								}
							}
						}
						JOINT HairB
						{
							OFFSET -10.777400 17.437393 1.467900
							CHANNELS 3 Xrotation Yrotation Zrotation
							JOINT HairB1
							{
								OFFSET -1.561200 -12.956299 3.590200
								CHANNELS 3 Xrotation Yrotation Zrotation
								End Site
								{
									OFFSET 0.000000 13.534866 0.000000
								}
							}
						}
						JOINT HairA
						{
							OFFSET 9.713100 17.437393 1.467900
							CHANNELS 3 Xrotation Yrotation Zrotation
							JOINT HairA1
							{
								OFFSET 1.561200 -12.956299 3.590200
								CHANNELS 3 Xrotation Yrotation Zrotation
								End Site
								{
									OFFSET 0.000000 13.534866 0.000000
								}
							}
						}
						JOINT HairC
						{
							OFFSET 9.713100 17.437393 -1.325900
							CHANNELS 3 Xrotation Yrotation Zrotation
							JOINT HairC1
							{
								OFFSET 3.290300 -11.051193 1.062200
								CHANNELS 3 Xrotation Yrotation Zrotation
								End Site
								{
									OFFSET 0.000000 11.579437 0.000000
								}
							}
						}
					}
				}
				JOINT LeftShoulder
				{
					OFFSET 5.101800 15.108002 -2.763700
					CHANNELS 3 Xrotation Yrotation Zrotation
					JOINT LeftArm
					{
						OFFSET 9.825497 2.506317 -1.597400
						CHANNELS 3 Xrotation Yrotation Zrotation
						JOINT LeftForeArm
						{
							OFFSET 21.966244 0.000000 0.000000
							CHANNELS 3 Xrotation Yrotation Zrotation
							JOINT LeftHand
							{
								OFFSET 33.879036 0.000000 0.000000
								CHANNELS 3 Xrotation Yrotation Zrotation
								JOINT LeftHandThumb1
								{
									OFFSET 6.715286 -2.359680 3.363841
									CHANNELS 3 Xrotation Yrotation Zrotation
									JOINT LeftHandThumb2
									{
										OFFSET 2.507072 -1.447464 1.447461
										CHANNELS 3 Xrotation Yrotation Zrotation
										JOINT LeftHandThumb3
										{
											OFFSET 2.898338 -1.673355 1.673357
											CHANNELS 3 Xrotation Yrotation Zrotation
											End Site
											{
												OFFSET -0.295959 3.727692 -0.131651
											}
										}
									}
								}
								JOINT LeftHandIndex1
								{
									OFFSET 14.190811 -0.254547 3.840278
									CHANNELS 3 Xrotation Yrotation Zrotation
									JOINT LeftHandIndex2
									{
										OFFSET 3.551727 0.000000 -0.000000
										CHANNELS 3 Xrotation Yrotation Zrotation
										JOINT LeftHandIndex3
										{
											OFFSET 2.894196 0.000000 0.000000
											CHANNELS 3 Xrotation Yrotation Zrotation
											End Site
											{
												OFFSET -1.000603 2.690872 0.366626
											}
										}
									}
								}
								JOINT LeftHandMiddle1
								{
									OFFSET 13.776489 0.000000 0.000000
									CHANNELS 3 Xrotation Yrotation Zrotation
									JOINT LeftHandMiddle2
									{
										OFFSET 3.438232 0.000000 0.000000
										CHANNELS 3 Xrotation Yrotation Zrotation
										JOINT LeftHandMiddle3
										{
											OFFSET 3.691551 0.000000 0.000000
											CHANNELS 3 Xrotation Yrotation Zrotation
											End Site
											{
												OFFSET -1.082298 3.499527 0.457670
											}
										}
									}
								}
								JOINT LeftHandRing1
								{
									OFFSET 13.966164 -0.268127 -3.067488
									CHANNELS 3 Xrotation Yrotation Zrotation
									JOINT LeftHandRing2
									{
										OFFSET 3.162567 0.000000 0.000000
										CHANNELS 3 Xrotation Yrotation Zrotation
										JOINT LeftHandRing3
										{
											OFFSET 3.324348 0.000000 0.000000
											CHANNELS 3 Xrotation Yrotation Zrotation
											End Site
											{
												OFFSET -0.861900 3.184998 0.405154
											}
										}
									}
								}
								JOINT LeftHandPinky1
								{
									OFFSET 13.131393 -0.168503 -5.746925
									CHANNELS 3 Xrotation Yrotation Zrotation
									JOINT LeftHandPinky2
									{
										OFFSET 2.849182 0.000000 0.000000
										CHANNELS 3 Xrotation Yrotation Zrotation
										JOINT LeftHandPinky3
										{
											OFFSET 2.805038 0.000000 0.000000
											CHANNELS 3 Xrotation Yrotation Zrotation
											End Site
											{
												OFFSET -0.882500 2.642609 0.325652
											}
										}
									}
								}
							}
							JOINT Left_Sleeve
							{
								OFFSET 6.592125 -0.646545 0.805568
								CHANNELS 3 Xrotation Yrotation Zrotation
								End Site
								{
									OFFSET -0.000179 20.275787 -0.000000
								}
							}
						}
					}
				}
				JOINT RightShoulder
				{
					OFFSET -5.731700 15.108002 -2.763700
					CHANNELS 3 Xrotation Yrotation Zrotation
					JOINT RightArm
					{
						OFFSET -9.825497 2.506317 -1.597400
						CHANNELS 3 Xrotation Yrotation Zrotation
						JOINT RightForeArm
						{
							OFFSET -21.966242 0.000000 0.000000
							CHANNELS 3 Xrotation Yrotation Zrotation
							JOINT RightHand
							{
								OFFSET -33.879032 0.000000 0.000000
								CHANNELS 3 Xrotation Yrotation Zrotation
								JOINT RightHandThumb1
								{
									OFFSET -6.715286 -2.359680 3.363841
									CHANNELS 3 Xrotation Yrotation Zrotation
									JOINT RightHandThumb2
									{
										OFFSET -2.507072 -1.447464 1.447461
										CHANNELS 3 Xrotation Yrotation Zrotation
										JOINT RightHandThumb3
										{
											OFFSET -2.898338 -1.673355 1.673357
											CHANNELS 3 Xrotation Yrotation Zrotation
											End Site
											{
												OFFSET 0.295959 3.727692 -0.131651
											}
										}
									}
								}
								JOINT RightHandIndex1
								{
									OFFSET -14.190811 -0.254547 3.840278
									CHANNELS 3 Xrotation Yrotation Zrotation
									JOINT RightHandIndex2
									{
										OFFSET -3.551727 0.000000 -0.000000
										CHANNELS 3 Xrotation Yrotation Zrotation
										JOINT RightHandIndex3
										{
											OFFSET -2.894196 0.000000 0.000000
											CHANNELS 3 Xrotation Yrotation Zrotation
											End Site
											{
												OFFSET 1.000603 2.690872 0.366626
											}
										}
									}
								}
								JOINT RightHandMiddle1
								{
									OFFSET -13.776489 0.000000 0.000000
									CHANNELS 3 Xrotation Yrotation Zrotation
									JOINT RightHandMiddle2
									{
										OFFSET -3.438232 0.000000 0.000000
										CHANNELS 3 Xrotation Yrotation Zrotation
										JOINT RightHandMiddle3
										{
											OFFSET -3.691551 0.000000 0.000000
											CHANNELS 3 Xrotation Yrotation Zrotation
											End Site
											{
												OFFSET 1.082298 3.499527 0.457670
											}
										}
									}
								}
								JOINT RightHandRing1
								{
									OFFSET -13.966164 -0.268127 -3.067488
									CHANNELS 3 Xrotation Yrotation Zrotation
									JOINT RightHandRing2
									{
										OFFSET -3.162567 0.000000 0.000000
										CHANNELS 3 Xrotation Yrotation Zrotation
										JOINT RightHandRing3
										{
											OFFSET -3.324348 0.000000 0.000000
											CHANNELS 3 Xrotation Yrotation Zrotation
											End Site
											{
												OFFSET 0.861900 3.184998 0.405154
											}
										}
									}
								}
								JOINT RightHandPinky1
								{
									OFFSET -13.131393 -0.168503 -5.746925
									CHANNELS 3 Xrotation Yrotation Zrotation
									JOINT RightHandPinky2
									{
										OFFSET -2.849182 0.000000 0.000000
										CHANNELS 3 Xrotation Yrotation Zrotation
										JOINT RightHandPinky3
										{
											OFFSET -2.805038 0.000000 0.000000
											CHANNELS 3 Xrotation Yrotation Zrotation
											End Site
											{
												OFFSET 0.882500 2.642609 0.325652
											}
										}
									}
								}
							}
							JOINT Right_Sleeve
							{
								OFFSET -6.592125 -0.646545 0.805568
								CHANNELS 3 Xrotation Yrotation Zrotation
								End Site
								{
									OFFSET 0.000179 20.275787 -0.000000
								}
							}
						}
					}
				}
				JOINT Bind_Right_JacketString
				{
					OFFSET -3.534800 11.969597 7.200700
					CHANNELS 3 Xrotation Yrotation Zrotation
					JOINT Bind_Right_JacketString1
					{
						OFFSET -0.319900 -6.102600 2.794100
						CHANNELS 3 Xrotation Yrotation Zrotation
						End Site
						{
							OFFSET 0.000000 6.719452 0.000000
						}
					}
				}
				JOINT Bind_Left_JacketString
				{
					OFFSET 2.904800 11.969597 7.200700
					CHANNELS 3 Xrotation Yrotation Zrotation
					JOINT Bind_Left_JacketString1
					{
						OFFSET 0.364800 -5.904503 3.186800
						CHANNELS 3 Xrotation Yrotation Zrotation
						End Site
						{
							OFFSET 0.000000 6.719513 0.000000
						}
					}
				}
				JOINT HairE
				{
					OFFSET 5.915200 17.612701 -11.592200
					CHANNELS 3 Xrotation Yrotation Zrotation
					JOINT HairE1
					{
						OFFSET 0.289200 -7.171898 -1.284500
						CHANNELS 3 Xrotation Yrotation Zrotation
						End Site
						{
							OFFSET 0.000000 7.291756 0.000000
						}
					}
				}
				JOINT HairF
				{
					OFFSET -0.864800 17.612701 -11.592200
					CHANNELS 3 Xrotation Yrotation Zrotation
					JOINT HairF1
					{
						OFFSET 0.000000 -14.087097 -2.127501
						CHANNELS 3 Xrotation Yrotation Zrotation
						End Site
						{
							OFFSET 0.000000 14.246841 0.000000
						}
					}
				}
				JOINT HairG
				{
					OFFSET -8.087700 17.612701 -11.592200
					CHANNELS 3 Xrotation Yrotation Zrotation
					JOINT HairG1
					{
						OFFSET -0.293600 -6.081398 -0.910100
						CHANNELS 3 Xrotation Yrotation Zrotation
						End Site
						{
							OFFSET 0.000000 6.156120 0.000000
						}
					}
				}
			}
		}
	}
	JOINT Pouch
	{
		OFFSET 0.000000 4.394501 10.847300
		CHANNELS 3 Xrotation Yrotation Zrotation
		End Site
		{
			OFFSET 0.000000 21.880577 0.000000
		}
	}
	JOINT Bag
	{
		OFFSET -13.229000 4.813004 -0.593300
		CHANNELS 3 Xrotation Yrotation Zrotation
		End Site
		{
			OFFSET 0.000000 21.880577 0.000000
		}
	}
	JOINT OccupyGuyFacialAnim_Joint
	{
		OFFSET 1.000000 -70.206398 -1.655000
		CHANNELS 3 Xrotation Yrotation Zrotation
		End Site
		{
			OFFSET 0.000000 21.880577 0.000000
		}
	}
}
MOTION
Frames: 4
Frame Time: 0.016667
2.309093 68.892548 7.882261 -31.893251 -38.319386 -21.640734 -0.000000 -0.000000 -0.000000 4.371298 12.595012 1.831642 32.458404 -1.700342 -4.452184 -13.672402 8.470903 7.801107 0.000000 0.000000 0.000000 -0.000003 0.000000 -0.000002 15.645424 -8.597674 -8.573545 29.434823 4.952075 -6.143315 -18.900802 -12.095089 7.281180 -0.000000 0.000003 -0.000000 -0.000000 0.000003 -0.000000 11.188810 -4.831483 -0.716256 3.545657 -2.400649 -0.151373 3.557022 -2.388380 -0.108335 1.348022 0.319775 -0.743108 -7.666570 -1.011492 4.648227 -0.000001 0.000002 -0.000000 -0.000001 0.000002 -0.000000 -0.000001 0.000002 0.000000 -0.000001 0.000002 0.000001 -0.000001 -0.000004 -0.000001 -0.000001 0.000002 0.000001 -0.000001 -0.000004 -0.000001 -0.000001 0.000002 -0.000000 -0.000001 0.000002 -0.000000 0.576508 -16.606960 -10.307151 -20.089168 4.591491 -37.031216 0.000005 -67.698882 0.000009 -41.746673 -11.632970 -7.621732 -22.783291 -14.798057 12.273485 3.061424 10.434223 14.851278 -0.000003 0.000001 -0.000001 2.077612 -2.776290 26.093727 3.254371 5.245067 -63.613903 0.000003 0.000002 -0.000003 -0.902199 3.834335 20.965944 2.978819 5.099678 -60.557892 0.000000 -0.000001 -0.000001 -6.120868 13.236949 27.840225 3.788283 5.476560 -69.323695 -0.000000 -0.000000 -0.000001 -10.441707 21.141327 29.056574 0.279091 1.788362 -17.739154 -0.000001 -0.000001 0.000003 0.000003 -0.000002 0.000001 0.014987 14.189121 15.480071 -11.472635 -5.400282 60.640387 0.000002 39.601051 -0.000016 -3.018909 -4.350305 23.974271 -20.073108 16.089489 -24.921335 8.794346 -40.952742 -1.386082 0.000001 0.000000 -0.000001 1.096418 -5.220453 38.986341 3.071097 -4.379302 70.068527 -0.000001 -0.000000 0.000000 2.986237 -6.607912 70.685204 0.640880 -2.359617 30.386740 0.000000 -0.000001 -0.000001 5.905005 -7.187146 80.752930 0.324128 -1.708675 21.480945 -0.000001 -0.000001 -0.000002 2.049612 -22.469477 97.460208 1.111345 -3.021278 40.383992 0.000001 -0.000002 0.000000 -0.000001 0.000002 -0.000000 0.000001 0.000000 0.000000 0.000000 -0.000002 -0.000000 0.000001 0.000000 -0.000000 0.000001 0.000000 -0.000000 0.000001 0.000000 0.000000 0.000000 -0.000002 -0.000000 0.000001 0.000000 -0.000000 0.000001 0.000000 -0.000000 0.000001 0.000000 0.000000 0.000000 -0.000002 -0.000000 -0.000000 -0.000000 -0.000000 -0.000000 -0.000000 -0.000000 -0.000000 -0.000000 -0.000000 
2.587257 68.888374 8.105452 -32.408431 -39.337696 -22.456006 0.000001 -0.000001 -0.000001 4.310228 12.794356 1.812276 32.685167 -2.128597 -4.889588 -14.011534 9.721113 8.719364 -0.000000 -0.000001 0.000000 -0.000001 -0.000002 -0.000002 15.229720 -8.462639 -8.850936 29.438710 4.593300 -6.275109 -18.317690 -12.334062 7.647125 0.000000 -0.000001 0.000001 -0.000001 -0.000004 -0.000001 11.188331 -4.830039 -0.721845 3.545658 -2.400647 -0.151372 3.557023 -2.388381 -0.108336 1.314812 0.322523 -0.750641 -7.907084 -0.936238 4.513181 -0.000000 0.000003 0.000000 -0.000000 0.000003 0.000000 -0.000000 0.000003 0.000001 -0.000000 0.000003 0.000002 -0.000000 0.000002 0.000001 -0.000000 0.000003 0.000002 -0.000000 0.000002 0.000001 -0.000000 0.000003 0.000000 -0.000000 0.000003 0.000000 0.579610 -16.606980 -10.288917 -19.994003 4.524819 -36.978620 0.000002 -67.695193 -0.000006 -41.851472 -11.691142 -7.561901 -22.783291 -14.798051 12.273481 3.079719 10.434810 14.836329 -0.000001 -0.000001 0.000002 2.045396 -2.802604 26.067082 3.253656 5.244705 -63.605980 0.000001 0.000001 -0.000002 -0.893470 3.814327 20.948163 2.979438 5.100057 -60.565104 0.000002 0.000002 0.000003 -6.128907 13.260739 27.829035 3.784893 5.475294 -69.288335 0.000001 0.000000 0.000000 -10.387947 21.193312 29.075241 0.279697 1.790203 -17.757993 -0.000001 0.000001 -0.000002 0.000004 -0.000001 -0.000001 0.007980 14.220976 15.529857 -11.429884 -5.404803 60.569981 -0.000012 39.667205 0.000009 -3.063970 -4.381495 23.963521 -20.073111 16.089491 -24.921330 8.794340 -40.952742 -1.386077 -0.000001 0.000002 0.000000 1.106971 -5.237100 39.169704 3.083387 -4.383726 70.229426 -0.000004 -0.000001 0.000002 2.981896 -6.606649 70.757871 0.640855 -2.359562 30.385961 -0.000001 0.000002 -0.000002 5.895793 -7.186265 80.734748 0.324336 -1.709203 21.487804 0.000002 -0.000001 -0.000000 2.105657 -22.468980 97.580324 1.111351 -3.021284 40.383992 0.000000 0.000001 -0.000003 0.000002 0.000002 -0.000002 -0.000000 -0.000001 -0.000000 -0.000001 -0.000001 -0.000001 -0.000000 -0.000001 -0.000000 -0.000000 -0.000001 -0.000000 -0.000000 -0.000001 -0.000000 -0.000001 -0.000001 -0.000000 -0.000000 -0.000001 -0.000000 -0.000000 -0.000001 -0.000000 -0.000000 -0.000001 -0.000000 -0.000001 -0.000001 -0.000000 0.000001 -0.000001 -0.000001 0.000001 -0.000001 -0.000001 0.000001 -0.000001 -0.000001 
2.854956 68.884628 8.325405 -32.950240 -40.349814 -23.294941 -0.000000 -0.000001 -0.000001 4.389385 12.993600 1.672137 32.653171 -2.571655 -5.232364 -14.504689 11.019209 9.924031 0.000000 -0.000001 0.000000 0.000000 -0.000004 -0.000002 14.724616 -8.434783 -9.206084 29.535268 4.709101 -6.280169 -17.686015 -13.178796 7.793026 -0.000000 -0.000000 -0.000000 -0.000001 0.000002 -0.000000 11.187830 -4.828550 -0.727749 3.545659 -2.400645 -0.151372 3.557023 -2.388382 -0.108335 1.278868 0.332802 -0.774660 -8.164868 -0.794805 4.357011 -0.000001 0.000002 0.000000 -0.000001 0.000002 0.000000 -0.000001 0.000002 0.000001 -0.000001 0.000002 0.000001 0.000000 -0.000001 0.000001 -0.000001 0.000002 0.000001 0.000000 -0.000001 0.000001 -0.000001 0.000002 0.000000 -0.000001 0.000002 0.000000 0.580767 -16.582622 -10.279778 -19.895774 4.421322 -36.921783 -0.000034 -67.679457 -0.000038 -41.961038 -11.751905 -7.500598 -22.783291 -14.798049 12.273478 3.099939 10.435455 14.819805 0.000002 -0.000000 0.000001 2.025255 -2.817828 26.042794 3.253557 5.244662 -63.605003 0.000001 0.000000 -0.000002 -0.885644 3.795381 20.937781 2.979685 5.100173 -60.567788 -0.000001 0.000000 0.000002 -6.132736 13.270853 27.825622 3.782937 5.474572 -69.267838 0.000000 0.000000 0.000000 -10.351086 21.229435 29.094424 0.279752 1.790424 -17.760191 0.000000 -0.000001 0.000003 0.000000 -0.000001 -0.000001 0.005026 14.258423 15.543484 -11.398955 -5.416180 60.537510 -0.000042 39.702937 0.000030 -3.105288 -4.392592 23.950458 -20.073108 16.089491 -24.921330 8.794336 -40.952742 -1.386077 -0.000002 0.000002 0.000000 1.117286 -5.251240 39.338352 3.100171 -4.389705 70.448832 0.000001 -0.000000 0.000000 2.976176 -6.604927 70.820524 0.641037 -2.359869 30.390295 -0.000002 0.000001 -0.000001 5.886023 -7.185508 80.710870 0.324523 -1.709655 21.493803 0.000001 0.000001 -0.000002 2.138407 -22.467824 97.646003 1.111346 -3.021277 40.383995 0.000001 -0.000000 0.000000 0.000001 0.000001 0.000001 -0.000000 0.000000 0.000000 0.000000 -0.000001 -0.000000 -0.000000 0.000000 0.000000 -0.000000 0.000000 0.000000 -0.000000 0.000000 0.000000 0.000000 -0.000001 -0.000000 -0.000000 0.000000 0.000000 -0.000000 0.000000 0.000000 -0.000000 0.000000 0.000000 0.000000 -0.000001 -0.000000 -0.000000 -0.000001 -0.000001 -0.000000 -0.000001 -0.000001 -0.000000 -0.000001 -0.000001 
3.104486 68.882011 8.544319 -33.519819 -41.354900 -24.159042 0.000001 0.000000 -0.000000 4.554760 13.162830 1.628387 32.407977 -3.044005 -5.598697 -14.760940 12.419304 10.489893 0.000000 -0.000002 0.000000 0.000002 0.000001 -0.000000 14.100217 -8.437099 -9.538823 29.710507 4.670608 -6.238303 -16.837082 -14.654121 7.953135 -0.000000 0.000002 0.000000 0.000001 -0.000003 -0.000002 11.187335 -4.827220 -0.733622 3.545657 -2.400647 -0.151373 3.557022 -2.388377 -0.108335 1.244413 0.349217 -0.810672 -8.403960 -0.613168 4.203383 -0.000000 0.000000 0.000000 -0.000000 0.000000 0.000000 -0.000000 0.000000 0.000000 -0.000000 0.000000 0.000000 0.000001 -0.000005 -0.000001 -0.000000 0.000000 0.000000 0.000001 -0.000005 -0.000001 -0.000000 0.000000 0.000000 -0.000000 0.000000 0.000000 0.581071 -16.531954 -10.273113 -19.827091 4.304721 -36.893851 0.000012 -67.649144 0.000014 -42.037851 -11.798980 -7.458962 -22.783291 -14.798047 12.273481 3.120377 10.436129 14.803064 -0.000003 -0.000001 -0.000001 2.016348 -2.822801 26.020142 3.253932 5.244879 -63.609360 0.000001 -0.000000 -0.000000 -0.880707 3.784775 20.924185 2.979456 5.100038 -60.565213 0.000000 0.000000 -0.000001 -6.133132 13.271913 27.825380 3.781460 5.474024 -69.252476 -0.000001 0.000000 0.000000 -10.329180 21.252301 29.106653 0.279439 1.789529 -17.750967 -0.000001 -0.000001 0.000003 -0.000002 0.000000 -0.000000 0.004874 14.295180 15.534097 -11.379689 -5.432799 60.532087 -0.000010 39.716713 0.000008 -3.137165 -4.390522 23.938384 -20.073110 16.089489 -24.921332 8.794339 -40.952742 -1.386081 -0.000003 0.000000 -0.000001 1.125941 -5.261670 39.465533 3.114852 -4.394873 70.640528 -0.000003 0.000002 0.000004 2.971164 -6.603352 70.859593 0.641260 -2.360268 30.395954 -0.000001 -0.000000 -0.000003 5.878766 -7.185186 80.685359 0.324620 -1.709942 21.497594 0.000004 -0.000001 -0.000000 2.141802 -22.466808 97.647533 1.111355 -3.021279 40.383995 -0.000000 0.000003 0.000006 -0.000001 -0.000001 0.000001 -0.000000 0.000002 0.000000 -0.000000 0.000000 -0.000000 -0.000000 0.000002 0.000000 -0.000000 0.000002 0.000000 -0.000000 0.000002 0.000000 -0.000000 0.000000 -0.000000 -0.000000 0.000002 0.000000 -0.000000 0.000002 0.000000 -0.000000 0.000002 0.000000 -0.000000 0.000000 -0.000000 0.000001 0.000000 -0.000000 0.000001 0.000000 -0.000000 0.000001 0.000000 -0.000000 
